<?xml version="1.0" standalone="no"?><svg xmlns="http://www.w3.org/2000/svg" viewBox="0 0 1440 320"><path fill="#ff5500" fill-opacity="1" d="M0,0L0,224L53.3,224L53.3,256L106.7,256L106.7,224L160,224L160,160L213.3,160L213.3,192L266.7,192L266.7,32L320,32L320,192L373.3,192L373.3,192L426.7,192L426.7,128L480,128L480,96L533.3,96L533.3,224L586.7,224L586.7,256L640,256L640,64L693.3,64L693.3,32L746.7,32L746.7,256L800,256L800,192L853.3,192L853.3,96L906.7,96L906.7,160L960,160L960,192L1013.3,192L1013.3,256L1066.7,256L1066.7,0L1120,0L1120,96L1173.3,96L1173.3,96L1226.7,96L1226.7,192L1280,192L1280,192L1333.3,192L1333.3,192L1386.7,192L1386.7,256L1440,256L1440,320L1386.7,320L1386.7,320L1333.3,320L1333.3,320L1280,320L1280,320L1226.7,320L1226.7,320L1173.3,320L1173.3,320L1120,320L1120,320L1066.7,320L1066.7,320L1013.3,320L1013.3,320L960,320L960,320L906.7,320L906.7,320L853.3,320L853.3,320L800,320L800,320L746.7,320L746.7,320L693.3,320L693.3,320L640,320L640,320L586.7,320L586.7,320L533.3,320L533.3,320L480,320L480,320L426.7,320L426.7,320L373.3,320L373.3,320L320,320L320,320L266.7,320L266.7,320L213.3,320L213.3,320L160,320L160,320L106.7,320L106.7,320L53.3,320L53.3,320L0,320L0,320Z"></path></svg>