<?xml version="1.0" standalone="no"?>
<svg xmlns:xlink="http://www.w3.org/1999/xlink" id="wave" style="transform:rotate(180deg); transition: 0.3s" viewBox="0 0 1440 400" version="1.1" xmlns="http://www.w3.org/2000/svg"><defs><linearGradient id="sw-gradient-0" x1="0" x2="0" y1="1" y2="0"><stop stop-color="rgba(0, 153, 255, 1)" offset="0%"/><stop stop-color="rgba(11, 255, 230.204, 1)" offset="100%"/></linearGradient></defs><path style="transform:translate(0, 0px); opacity:1" fill="url(#sw-gradient-0)" d="M0,160L13.3,153.3C26.7,147,53,133,80,126.7C106.7,120,133,120,160,120C186.7,120,213,120,240,126.7C266.7,133,293,147,320,160C346.7,173,373,187,400,173.3C426.7,160,453,120,480,93.3C506.7,67,533,53,560,60C586.7,67,613,93,640,146.7C666.7,200,693,280,720,300C746.7,320,773,280,800,240C826.7,200,853,160,880,153.3C906.7,147,933,173,960,180C986.7,187,1013,173,1040,166.7C1066.7,160,1093,160,1120,180C1146.7,200,1173,240,1200,266.7C1226.7,293,1253,307,1280,293.3C1306.7,280,1333,240,1360,233.3C1386.7,227,1413,253,1440,220C1466.7,187,1493,93,1520,53.3C1546.7,13,1573,27,1600,46.7C1626.7,67,1653,93,1680,140C1706.7,187,1733,253,1760,253.3C1786.7,253,1813,187,1840,133.3C1866.7,80,1893,40,1907,20L1920,0L1920,400L1906.7,400C1893.3,400,1867,400,1840,400C1813.3,400,1787,400,1760,400C1733.3,400,1707,400,1680,400C1653.3,400,1627,400,1600,400C1573.3,400,1547,400,1520,400C1493.3,400,1467,400,1440,400C1413.3,400,1387,400,1360,400C1333.3,400,1307,400,1280,400C1253.3,400,1227,400,1200,400C1173.3,400,1147,400,1120,400C1093.3,400,1067,400,1040,400C1013.3,400,987,400,960,400C933.3,400,907,400,880,400C853.3,400,827,400,800,400C773.3,400,747,400,720,400C693.3,400,667,400,640,400C613.3,400,587,400,560,400C533.3,400,507,400,480,400C453.3,400,427,400,400,400C373.3,400,347,400,320,400C293.3,400,267,400,240,400C213.3,400,187,400,160,400C133.3,400,107,400,80,400C53.3,400,27,400,13,400L0,400Z"/></svg>