<?xml version="1.0" standalone="no"?><svg xmlns="http://www.w3.org/2000/svg" viewBox="0 0 1440 320"><path fill="#0099ff" fill-opacity="1" d="M0,256L21.8,250.7C43.6,245,87,235,131,234.7C174.5,235,218,245,262,229.3C305.5,213,349,171,393,138.7C436.4,107,480,85,524,112C567.3,139,611,213,655,224C698.2,235,742,181,785,165.3C829.1,149,873,171,916,165.3C960,160,1004,128,1047,144C1090.9,160,1135,224,1178,218.7C1221.8,213,1265,139,1309,101.3C1352.7,64,1396,64,1418,64L1440,64L1440,320L1418.2,320C1396.4,320,1353,320,1309,320C1265.5,320,1222,320,1178,320C1134.5,320,1091,320,1047,320C1003.6,320,960,320,916,320C872.7,320,829,320,785,320C741.8,320,698,320,655,320C610.9,320,567,320,524,320C480,320,436,320,393,320C349.1,320,305,320,262,320C218.2,320,175,320,131,320C87.3,320,44,320,22,320L0,320Z"></path></svg>